<svg width="182" height="42" viewBox="0 0 182 42" fill="none" xmlns="http://www.w3.org/2000/svg">
<path d="M6.7166 32.3C4.7166 32.3 3.24994 31.7833 2.3166 30.75C1.4166 29.6833 0.966602 28.2833 0.966602 26.55C0.966602 25.9167 1.0166 25.25 1.1166 24.55C1.2166 23.8167 1.38327 23.0667 1.6166 22.3C1.98327 21 2.5166 19.5333 3.2166 17.9C3.9166 16.2667 4.73327 14.6167 5.6666 12.95C6.59994 11.2833 7.59994 9.71667 8.6666 8.25C9.73327 6.78333 10.8166 5.58333 11.9166 4.65C12.9166 3.78333 13.9999 3.13333 15.1666 2.7C16.3666 2.23333 17.4999 2 18.5666 2C20.4999 2 21.8666 2.43333 22.6666 3.3C23.4999 4.16667 23.9166 5.23333 23.9166 6.5C23.9166 7.5 23.6999 8.53333 23.2666 9.6C22.8333 10.6667 22.2333 11.7 21.4666 12.7C20.7333 13.6667 19.8833 14.5 18.9166 15.2C17.9499 15.9 16.9166 16.35 15.8166 16.55C15.6833 16.5833 15.5166 16.6 15.3166 16.6C15.0833 16.6 14.9666 16.5333 14.9666 16.4C14.9666 16.3 15.0333 16.1833 15.1666 16.05C15.2999 15.8833 15.4333 15.7333 15.5666 15.6C15.8333 15.3333 16.2499 14.85 16.8166 14.15C17.4166 13.4167 18.0333 12.5833 18.6666 11.65C19.2999 10.6833 19.8166 9.75 20.2166 8.85C20.8166 7.58333 21.1166 6.5 21.1166 5.6C21.1166 4.66666 20.7999 4.2 20.1666 4.2C19.6999 4.2 19.0666 4.51666 18.2666 5.15C17.4999 5.75 16.5833 6.78333 15.5166 8.25C14.7166 9.31667 13.9499 10.45 13.2166 11.65C12.5166 12.8167 11.8999 13.9167 11.3666 14.95C10.8333 15.95 10.4166 16.7667 10.1166 17.4C9.48327 18.9 8.9166 20.5 8.4166 22.2C7.9166 23.8667 7.6666 25.35 7.6666 26.65C7.6666 27.65 7.84994 28.4667 8.2166 29.1C8.58327 29.7 9.2166 30 10.1166 30C11.0499 30 11.9999 29.6667 12.9666 29C13.9333 28.3 14.8499 27.4333 15.7166 26.4C16.6166 25.3333 17.4333 24.2333 18.1666 23.1C18.9333 21.9333 19.5666 20.8667 20.0666 19.9C20.2999 19.9333 20.6333 19.9667 21.0666 20C21.5333 20.0333 21.7666 20.35 21.7666 20.95C21.7666 21.2833 21.6666 21.7167 21.4666 22.25C21.2666 22.75 20.9166 23.4333 20.4166 24.3C19.3499 26.0667 17.9166 27.6333 16.1166 29C14.3166 30.3667 12.4999 31.2833 10.6666 31.75C9.93327 31.95 9.23327 32.0833 8.5666 32.15C7.89994 32.25 7.28327 32.3 6.7166 32.3ZM24.6475 41.95C23.0475 41.9833 21.7808 41.7667 20.8475 41.3C19.9141 40.8333 19.4475 40.1 19.4475 39.1C19.4475 38.2 19.7808 37.4167 20.4475 36.75C21.1475 36.1167 22.0308 35.55 23.0975 35.05C24.1641 34.5833 25.2641 34.1833 26.3975 33.85C27.5641 33.5167 28.5975 33.2333 29.4975 33C30.1308 31.3 30.6975 29.6667 31.1975 28.1C31.7308 26.5333 32.2641 24.9333 32.7975 23.3L30.4975 27.4C29.5975 28.7333 28.6308 29.8833 27.5975 30.85C26.5975 31.8167 25.5141 32.2167 24.3475 32.05C23.3141 31.8833 22.5975 31.4667 22.1975 30.8C21.8308 30.1 21.6475 29.3167 21.6475 28.45C21.6475 27.4167 21.8141 26.35 22.1475 25.25C22.4808 24.1167 22.7808 23.15 23.0475 22.35C23.6141 20.7167 24.2141 19.1333 24.8475 17.6C25.5141 16.0667 26.0475 14.9167 26.4475 14.15C27.0475 12.9833 27.7975 12.2 28.6975 11.8C29.6308 11.4 30.5975 11.2 31.5975 11.2C32.1641 11.2 32.7308 11.25 33.2975 11.35C33.8641 11.4167 34.4141 11.5 34.9475 11.6C34.7141 11.6667 34.3141 12.0833 33.7475 12.85C33.2141 13.6167 32.6308 14.5667 31.9975 15.7C31.3975 16.8 30.8308 17.9333 30.2975 19.1C29.5641 20.7333 28.9475 22.2833 28.4475 23.75C27.9475 25.2167 27.6975 26.2833 27.6975 26.95C27.6975 27.3833 27.8141 27.6 28.0475 27.6C28.3141 27.6 28.6475 27.3667 29.0475 26.9C29.7141 26.0333 30.3808 24.9833 31.0475 23.75C31.7141 22.5167 32.2975 21.4167 32.7975 20.45C33.1641 19.6833 33.5475 18.8333 33.9475 17.9C34.3475 16.9333 34.7641 16 35.1975 15.1C35.9641 13.6333 36.7475 12.5667 37.5475 11.9C38.3475 11.2333 39.1641 10.8333 39.9975 10.7C40.1975 10.6667 40.3975 10.65 40.5975 10.65C40.8308 10.6167 41.0475 10.6 41.2475 10.6C41.8141 10.6 42.3308 10.65 42.7975 10.75C43.2975 10.8167 43.6475 10.8833 43.8475 10.95C44.4475 11.15 44.7475 11.3833 44.7475 11.65C44.7475 11.7833 44.6641 11.9 44.4975 12C44.3641 12.0667 44.2141 12.1 44.0475 12.1C43.6808 12.1 43.2475 12.4333 42.7475 13.1C42.2475 13.7333 41.7308 14.55 41.1975 15.55C40.6641 16.5167 40.1641 17.5333 39.6975 18.6C38.8308 20.5333 38.1141 22.5167 37.5475 24.55C36.9808 26.5833 36.3141 28.65 35.5475 30.75C37.2808 29.6833 38.8475 28.25 40.2475 26.45C40.8475 25.7167 41.4141 24.9 41.9475 24C42.4808 23.0667 42.9975 22.1333 43.4975 21.2C43.6308 20.9333 43.8308 20.8 44.0975 20.8C44.4975 20.8 44.6975 21.0167 44.6975 21.45C44.6975 21.5167 44.6808 21.5833 44.6475 21.65C44.6475 21.7167 44.6308 21.7833 44.5975 21.85C43.9641 23.1833 43.2808 24.4167 42.5475 25.55C41.8141 26.65 41.0475 27.6333 40.2475 28.5C39.0141 29.8333 37.7475 30.9167 36.4475 31.75C35.9808 32.0833 35.4475 32.3833 34.8475 32.65C34.1808 34.2833 33.3808 35.8 32.4475 37.2C31.5141 38.6 30.4141 39.7333 29.1475 40.6C27.8808 41.4667 26.3808 41.9167 24.6475 41.95ZM23.1475 39.9C24.1141 39.9 25.1308 39.3667 26.1975 38.3C27.2641 37.2333 28.1475 35.9833 28.8475 34.55C27.8808 34.7833 26.8141 35.1 25.6475 35.5C24.5141 35.9 23.5475 36.3667 22.7475 36.9C21.9475 37.4333 21.5475 38.05 21.5475 38.75C21.5475 39.0833 21.6475 39.35 21.8475 39.55C22.0808 39.7833 22.5141 39.9 23.1475 39.9ZM48.9205 32.8C47.0872 32.8 45.5205 32.3167 44.2205 31.35C42.9205 30.35 42.2705 28.85 42.2705 26.85C42.2705 25.3167 42.5705 23.6667 43.1705 21.9C43.8038 20.1333 44.6205 18.45 45.6205 16.85C46.6538 15.2167 47.7872 13.8667 49.0205 12.8C49.7872 12.1333 50.6205 11.5833 51.5205 11.15C52.4205 10.7167 53.3205 10.4833 54.2205 10.45C55.7538 10.35 57.1038 10.5333 58.2705 11C59.4372 11.4667 60.0205 12.3833 60.0205 13.75C60.0205 14.0833 59.9705 14.4667 59.8705 14.9C59.8038 15.3 59.6538 15.75 59.4205 16.25C59.0872 16.9833 58.6538 17.7 58.1205 18.4C57.6205 19.1 57.1872 19.5833 56.8205 19.85C56.4538 20.1167 56.0872 20.3167 55.7205 20.45C55.3538 20.55 55.0205 20.6 54.7205 20.6C54.3872 20.6 54.0872 20.55 53.8205 20.45C53.5872 20.35 53.3872 20.2333 53.2205 20.1C53.6538 19.4 54.0872 18.6167 54.5205 17.75C54.9538 16.8833 55.3372 16.0833 55.6705 15.35C56.0038 14.5833 56.2038 14 56.2705 13.6C56.3038 13.4667 56.3205 13.35 56.3205 13.25C56.3538 13.15 56.3705 13.05 56.3705 12.95C56.3705 12.2833 56.1205 11.95 55.6205 11.95C55.2205 11.95 54.7872 12.2333 54.3205 12.8C53.4872 13.7333 52.6872 14.9 51.9205 16.3C51.1538 17.7 50.4372 19.2 49.7705 20.8C49.6038 21.2333 49.3705 21.8333 49.0705 22.6C48.8038 23.3667 48.5538 24.2 48.3205 25.1C48.1205 25.9667 48.0205 26.8 48.0205 27.6C48.0205 28.5 48.2205 29.2667 48.6205 29.9C49.0538 30.5 49.8205 30.8 50.9205 30.8C51.9872 30.8 52.9705 30.5 53.8705 29.9C54.8038 29.2667 55.6705 28.4667 56.4705 27.5C57.2705 26.5 57.9872 25.45 58.6205 24.35C59.2538 23.2167 59.8205 22.15 60.3205 21.15C60.4205 20.9167 60.5872 20.8 60.8205 20.8C61.0205 20.8 61.2038 20.9 61.3705 21.1C61.5372 21.3 61.5538 21.5333 61.4205 21.8C60.9538 22.7333 60.4372 23.6833 59.8705 24.65C59.3372 25.6167 58.7538 26.5667 58.1205 27.5C57.0538 29.1 55.7538 30.3833 54.2205 31.35C52.6872 32.3167 50.9205 32.8 48.9205 32.8ZM64.5174 32.35C63.1507 32.35 62.0674 32.15 61.2674 31.75C60.5007 31.35 59.934 30.7667 59.5674 30C59.234 29.2333 59.0674 28.3333 59.0674 27.3C59.0674 25.5333 59.4674 23.5333 60.2674 21.3C61.1007 19.0667 62.0674 16.9333 63.1674 14.9C63.6007 14.1 64.1174 13.1667 64.7174 12.1C65.3507 11 66.0507 9.91667 66.8174 8.85C67.6174 7.78333 68.4507 6.86667 69.3174 6.1C70.2174 5.3 71.1341 4.81666 72.0674 4.65C72.634 4.55 73.184 4.5 73.7174 4.5C74.5841 4.5 75.2341 4.58333 75.6674 4.75C76.434 5.05 76.8174 5.35 76.8174 5.65C76.8174 5.85 76.6507 5.95 76.3174 5.95C76.1841 5.95 76.0007 6.03333 75.7674 6.2C75.5341 6.33333 75.3174 6.5 75.1174 6.7C73.6507 8.16667 72.034 10.35 70.2674 13.25C68.834 15.5833 67.6341 17.8833 66.6674 20.15C65.7007 22.3833 64.984 24.6833 64.5174 27.05C64.4174 27.65 64.3674 28.15 64.3674 28.55C64.3674 29.25 64.4841 29.75 64.7174 30.05C64.9507 30.35 65.234 30.5 65.5674 30.5C66.234 30.5 67.0007 30.1167 67.8674 29.35C68.7674 28.5833 69.4841 27.75 70.0174 26.85C70.7174 25.8833 71.334 24.8833 71.8674 23.85C72.4341 22.7833 72.9007 21.8833 73.2674 21.15C73.4007 20.9167 73.584 20.8 73.8174 20.8C74.0174 20.8 74.2007 20.9 74.3674 21.1C74.5341 21.3 74.5507 21.5333 74.4174 21.8C73.9174 22.8 73.2841 23.9833 72.5174 25.35C71.784 26.7167 70.9674 27.9333 70.0674 29C69.2341 30 68.3341 30.8167 67.3674 31.45C66.434 32.05 65.484 32.35 64.5174 32.35ZM79.0057 32.75C76.5723 32.75 74.8057 32.2 73.7057 31.1C72.639 30 72.1057 28.55 72.1057 26.75C72.1057 25.3833 72.389 23.8833 72.9557 22.25C73.389 20.9167 73.9723 19.5667 74.7057 18.2C75.439 16.8 76.289 15.5167 77.2557 14.35C78.2223 13.15 79.289 12.2 80.4557 11.5C81.6223 10.7667 82.8557 10.4 84.1557 10.4C85.8223 10.4 87.1723 10.6667 88.2057 11.2C89.2723 11.7 89.8057 12.5333 89.8057 13.7C89.8057 14.5667 89.4557 15.65 88.7557 16.95C87.8223 18.75 86.4557 20.2333 84.6557 21.4C82.8557 22.5667 80.839 23.2333 78.6057 23.4C78.1057 24.7667 77.8057 25.8833 77.7057 26.75C77.6723 26.9167 77.6557 27.0833 77.6557 27.25C77.6557 27.3833 77.6557 27.5333 77.6557 27.7C77.6557 28.8 77.9057 29.6 78.4057 30.1C78.9057 30.5667 79.5223 30.8 80.2557 30.8C81.6223 30.8 82.8223 30.45 83.8557 29.75C84.889 29.05 85.789 28.1667 86.5557 27.1C87.3557 26.0333 88.039 24.9667 88.6057 23.9C88.939 23.3 89.2223 22.75 89.4557 22.25C89.689 21.7167 89.8723 21.3333 90.0057 21.1C90.1723 20.8333 90.3557 20.7 90.5557 20.7C90.7557 20.7 90.939 20.8167 91.1057 21.05C91.2723 21.25 91.289 21.4833 91.1557 21.75C90.7223 22.6167 90.1223 23.7667 89.3557 25.2C88.589 26.6333 87.7223 27.9 86.7557 29C85.689 30.2667 84.539 31.2167 83.3057 31.85C82.1057 32.45 80.6723 32.75 79.0057 32.75ZM79.2557 21.95C80.7557 21.3833 82.0723 20.3667 83.2057 18.9C84.3723 17.4333 85.1557 15.8167 85.5557 14.05C85.589 13.8833 85.6057 13.7333 85.6057 13.6C85.639 13.4667 85.6557 13.3333 85.6557 13.2C85.6557 12.5333 85.4557 12.2 85.0557 12.2C84.7223 12.2 84.3723 12.4333 84.0057 12.9C83.4723 13.5333 82.9057 14.4 82.3057 15.5C81.7057 16.5667 81.1723 17.6167 80.7057 18.65C80.239 19.6833 79.889 20.4667 79.6557 21L79.2557 21.95ZM98.3549 33.2C95.1549 33.2 92.5882 32.3833 90.6549 30.75C88.7215 29.1167 87.7549 26.6833 87.7549 23.45C87.7549 21.9167 88.0549 20.5 88.6549 19.2C89.2882 17.8667 90.3715 17.0667 91.9049 16.8C91.7382 17.3 91.6549 17.8667 91.6549 18.5C91.6549 19.5333 91.7882 20.7 92.0549 22C92.3549 23.2667 92.6549 24.3667 92.9549 25.3C93.4215 26.6333 94.0549 27.7833 94.8549 28.75C95.6882 29.6833 96.5715 30.4167 97.5049 30.95C98.4716 31.45 99.3382 31.7 100.105 31.7C100.838 31.7 101.422 31.4833 101.855 31.05C102.322 30.5833 102.555 29.8333 102.555 28.8C102.555 27.5 102.205 26.2333 101.505 25C100.805 23.7333 99.9716 22.4667 99.0049 21.2C98.0382 19.9333 97.1215 18.6667 96.2549 17.4C95.5882 16.3667 95.0215 15.3167 94.5549 14.25C94.0882 13.15 93.8549 12.0333 93.8549 10.9C93.8549 9.1 94.2549 7.58333 95.0549 6.35C95.8549 5.08333 96.9215 4.13333 98.2549 3.5C99.6216 2.83333 101.138 2.5 102.805 2.5C103.572 2.5 104.422 2.55 105.355 2.65C106.288 2.75 107.172 2.96666 108.005 3.3L108.755 3.6C109.422 2.63333 110.172 1.95 111.005 1.55C111.838 1.15 112.572 0.949997 113.205 0.949997C113.705 0.949997 114.105 1.05 114.405 1.25C114.738 1.41667 114.905 1.65 114.905 1.95C114.905 2.25 114.738 2.55 114.405 2.85C113.105 4.08333 112.088 5.25 111.355 6.35C110.622 7.41667 109.922 8.65 109.255 10.05C108.622 11.4167 108.255 12.8 108.155 14.2C107.955 14.2667 107.822 14.3 107.755 14.3C107.388 14.3 107.122 14.05 106.955 13.55C106.788 13.0167 106.705 12.35 106.705 11.55C106.705 10.6167 106.805 9.6 107.005 8.5C107.205 7.36667 107.472 6.36667 107.805 5.5C107.605 5.3 107.338 5.13333 107.005 5C106.672 4.83333 106.288 4.75 105.855 4.75C105.055 4.75 104.322 5.06667 103.655 5.7C102.988 6.33333 102.438 7.11667 102.005 8.05C101.605 8.95 101.405 9.83333 101.405 10.7C101.405 11.8333 101.655 12.9667 102.155 14.1C102.688 15.2333 103.322 16.35 104.055 17.45C104.822 18.55 105.538 19.65 106.205 20.75C106.805 21.7833 107.238 22.7667 107.505 23.7C107.805 24.6 107.955 25.45 107.955 26.25C107.955 28.3833 107.072 30.0833 105.305 31.35C103.572 32.5833 101.255 33.2 98.3549 33.2ZM117.824 32.75C115.391 32.75 113.624 32.2 112.524 31.1C111.457 30 110.924 28.55 110.924 26.75C110.924 25.3833 111.207 23.8833 111.774 22.25C112.207 20.9167 112.791 19.5667 113.524 18.2C114.257 16.8 115.107 15.5167 116.074 14.35C117.041 13.15 118.107 12.2 119.274 11.5C120.441 10.7667 121.674 10.4 122.974 10.4C124.641 10.4 125.991 10.6667 127.024 11.2C128.091 11.7 128.624 12.5333 128.624 13.7C128.624 14.5667 128.274 15.65 127.574 16.95C126.641 18.75 125.274 20.2333 123.474 21.4C121.674 22.5667 119.657 23.2333 117.424 23.4C116.924 24.7667 116.624 25.8833 116.524 26.75C116.491 26.9167 116.474 27.0833 116.474 27.25C116.474 27.3833 116.474 27.5333 116.474 27.7C116.474 28.8 116.724 29.6 117.224 30.1C117.724 30.5667 118.341 30.8 119.074 30.8C120.441 30.8 121.641 30.45 122.674 29.75C123.707 29.05 124.607 28.1667 125.374 27.1C126.174 26.0333 126.857 24.9667 127.424 23.9C127.757 23.3 128.041 22.75 128.274 22.25C128.507 21.7167 128.691 21.3333 128.824 21.1C128.991 20.8333 129.174 20.7 129.374 20.7C129.574 20.7 129.757 20.8167 129.924 21.05C130.091 21.25 130.107 21.4833 129.974 21.75C129.541 22.6167 128.941 23.7667 128.174 25.2C127.407 26.6333 126.541 27.9 125.574 29C124.507 30.2667 123.357 31.2167 122.124 31.85C120.924 32.45 119.491 32.75 117.824 32.75ZM118.074 21.95C119.574 21.3833 120.891 20.3667 122.024 18.9C123.191 17.4333 123.974 15.8167 124.374 14.05C124.407 13.8833 124.424 13.7333 124.424 13.6C124.457 13.4667 124.474 13.3333 124.474 13.2C124.474 12.5333 124.274 12.2 123.874 12.2C123.541 12.2 123.191 12.4333 122.824 12.9C122.291 13.5333 121.724 14.4 121.124 15.5C120.524 16.5667 119.991 17.6167 119.524 18.65C119.057 19.6833 118.707 20.4667 118.474 21L118.074 21.95ZM140.523 32.4C138.823 32.4 137.673 31.9333 137.073 31C136.473 30.0667 136.173 28.9833 136.173 27.75C136.173 26.85 136.273 25.95 136.473 25.05C136.673 24.15 136.89 23.35 137.123 22.65C137.357 21.95 137.523 21.4667 137.623 21.2C138.023 20 138.44 18.85 138.873 17.75C139.34 16.6167 139.69 15.8333 139.923 15.4C139.823 15.5667 139.457 16.05 138.823 16.85C138.19 17.65 137.44 18.65 136.573 19.85C135.74 21.0167 134.907 22.2667 134.073 23.6C133.24 24.9 132.54 26.1667 131.973 27.4C131.44 28.6 131.173 29.6333 131.173 30.5C131.173 31.1 131.307 31.5333 131.573 31.8C131.673 31.9 131.723 31.9833 131.723 32.05C131.723 32.2167 131.54 32.2667 131.173 32.2C130.407 32.0667 129.657 31.9333 128.923 31.8C128.19 31.6333 127.573 31.3167 127.073 30.85C126.607 30.35 126.373 29.5333 126.373 28.4C126.373 27.5 126.607 26.4167 127.073 25.15C127.54 23.85 128.09 22.5167 128.723 21.15C129.357 19.7833 129.907 18.5167 130.373 17.35C130.473 17.0833 130.64 16.6833 130.873 16.15C131.107 15.5833 131.34 15 131.573 14.4C131.84 13.7667 132.04 13.2167 132.173 12.75C132.307 12.25 132.34 11.9167 132.273 11.75C132.207 11.6167 132.173 11.5167 132.173 11.45C132.173 11.05 132.44 10.85 132.973 10.85C133.507 10.85 134.04 10.9333 134.573 11.1C135.14 11.2333 135.64 11.4667 136.073 11.8C136.54 12.1333 136.907 12.5333 137.173 13C137.44 13.4667 137.573 13.9833 137.573 14.55C137.573 14.9167 137.49 15.35 137.323 15.85C137.257 16.0833 137.107 16.4 136.873 16.8C136.673 17.1667 136.457 17.5667 136.223 18C135.99 18.4333 135.74 18.8833 135.473 19.35C135.24 19.8167 135.157 20.0667 135.223 20.1C136.057 18.6333 136.957 17.2667 137.923 16C138.923 14.7 139.823 13.5833 140.623 12.65C141.457 11.7167 142.007 11.0333 142.273 10.6C142.54 10.4 142.973 10.3 143.573 10.3C144.273 10.3 144.99 10.5167 145.723 10.95C146.457 11.3833 146.823 12.1667 146.823 13.3C146.823 14.2333 146.49 15.3667 145.823 16.7C144.39 19.4333 143.29 21.9 142.523 24.1C141.757 26.2667 141.373 27.8667 141.373 28.9C141.373 29.6333 141.573 30 141.973 30C142.44 30 142.973 29.7 143.573 29.1C144.173 28.5 144.74 27.7833 145.273 26.95C146.007 25.8833 146.673 24.75 147.273 23.55C147.907 22.35 148.34 21.5167 148.573 21.05C148.673 20.85 148.823 20.75 149.023 20.75C149.223 20.75 149.407 20.8667 149.573 21.1C149.773 21.3 149.807 21.5333 149.673 21.8C149.44 22.2667 149.09 22.9167 148.623 23.75C148.19 24.5833 147.69 25.4833 147.123 26.45C146.557 27.3833 145.94 28.2833 145.273 29.15C144.54 30.15 143.807 30.95 143.073 31.55C142.34 32.1167 141.49 32.4 140.523 32.4ZM152.951 32.35C150.918 32.35 149.234 31.75 147.901 30.55C146.568 29.35 145.901 27.6833 145.901 25.55C145.901 24.8167 145.984 24.05 146.151 23.25C146.318 22.45 146.584 21.7667 146.951 21.2C147.318 20.6333 147.801 20.35 148.401 20.35C148.768 20.35 149.034 20.4667 149.201 20.7C149.601 19.9333 150.034 19.1667 150.501 18.4C150.968 17.6333 151.434 16.85 151.901 16.05C152.434 15.1833 153.051 14.2333 153.751 13.2C154.484 12.1333 155.318 11.2 156.251 10.4C157.184 9.56667 158.201 9.1 159.301 9C159.434 8.96667 159.568 8.95 159.701 8.95C159.868 8.95 160.018 8.95 160.151 8.95C160.518 8.95 160.901 8.96667 161.301 9C161.701 9.03333 162.001 9.06667 162.201 9.1C162.268 9.13333 162.318 9.23333 162.351 9.4C162.384 9.56667 162.301 9.65 162.101 9.65C161.968 9.65 161.701 9.75 161.301 9.95C160.901 10.1167 160.668 10.5333 160.601 11.2C160.534 13.5333 160.384 15.8667 160.151 18.2C159.951 20.5333 159.634 22.4833 159.201 24.05C159.001 24.85 158.684 25.7167 158.251 26.65C157.818 27.5833 157.301 28.4167 156.701 29.15C156.101 29.8833 155.468 30.3833 154.801 30.65C155.468 30.65 156.168 30.45 156.901 30.05C157.668 29.6167 158.368 29.1 159.001 28.5C159.668 27.9 160.168 27.3667 160.501 26.9C161.234 25.8667 161.901 24.7833 162.501 23.65C163.134 22.4833 163.601 21.5833 163.901 20.95C164.001 20.7833 164.118 20.7 164.251 20.7C164.418 20.7 164.568 20.8 164.701 21C164.834 21.2 164.901 21.4167 164.901 21.65C164.901 21.7167 164.884 21.7833 164.851 21.85C164.851 21.9167 164.834 21.9833 164.801 22.05C164.201 23.25 163.534 24.4667 162.801 25.7C162.101 26.9 161.284 28.0167 160.351 29.05C159.418 30.05 158.351 30.85 157.151 31.45C155.951 32.05 154.551 32.35 152.951 32.35ZM149.701 29.2C150.068 29.2 150.434 29.0833 150.801 28.85C151.168 28.6167 151.468 28.25 151.701 27.75C152.201 26.65 152.651 25.3833 153.051 23.95C153.451 22.5167 153.801 21.1 154.101 19.7C154.401 18.2667 154.651 17 154.851 15.9C155.084 14.7667 155.251 13.95 155.351 13.45C154.851 14.05 154.234 14.9 153.501 16C152.801 17.1 152.118 18.2 151.451 19.3C150.818 20.4 150.334 21.2833 150.001 21.95C150.034 22.7167 149.734 23.4 149.101 24C148.468 24.6 147.918 25.2167 147.451 25.85V26.4C147.451 26.5333 147.451 26.7 147.451 26.9C147.484 27.1 147.518 27.2833 147.551 27.45C147.718 27.9833 148.001 28.4167 148.401 28.75C148.834 29.05 149.268 29.2 149.701 29.2ZM169.484 32.75C167.051 32.75 165.284 32.2 164.184 31.1C163.118 30 162.584 28.55 162.584 26.75C162.584 25.3833 162.868 23.8833 163.434 22.25C163.868 20.9167 164.451 19.5667 165.184 18.2C165.918 16.8 166.768 15.5167 167.734 14.35C168.701 13.15 169.768 12.2 170.934 11.5C172.101 10.7667 173.334 10.4 174.634 10.4C176.301 10.4 177.651 10.6667 178.684 11.2C179.751 11.7 180.284 12.5333 180.284 13.7C180.284 14.5667 179.934 15.65 179.234 16.95C178.301 18.75 176.934 20.2333 175.134 21.4C173.334 22.5667 171.318 23.2333 169.084 23.4C168.584 24.7667 168.284 25.8833 168.184 26.75C168.151 26.9167 168.134 27.0833 168.134 27.25C168.134 27.3833 168.134 27.5333 168.134 27.7C168.134 28.8 168.384 29.6 168.884 30.1C169.384 30.5667 170.001 30.8 170.734 30.8C172.101 30.8 173.301 30.45 174.334 29.75C175.368 29.05 176.268 28.1667 177.034 27.1C177.834 26.0333 178.518 24.9667 179.084 23.9C179.418 23.3 179.701 22.75 179.934 22.25C180.168 21.7167 180.351 21.3333 180.484 21.1C180.651 20.8333 180.834 20.7 181.034 20.7C181.234 20.7 181.418 20.8167 181.584 21.05C181.751 21.25 181.768 21.4833 181.634 21.75C181.201 22.6167 180.601 23.7667 179.834 25.2C179.068 26.6333 178.201 27.9 177.234 29C176.168 30.2667 175.018 31.2167 173.784 31.85C172.584 32.45 171.151 32.75 169.484 32.75ZM169.734 21.95C171.234 21.3833 172.551 20.3667 173.684 18.9C174.851 17.4333 175.634 15.8167 176.034 14.05C176.068 13.8833 176.084 13.7333 176.084 13.6C176.118 13.4667 176.134 13.3333 176.134 13.2C176.134 12.5333 175.934 12.2 175.534 12.2C175.201 12.2 174.851 12.4333 174.484 12.9C173.951 13.5333 173.384 14.4 172.784 15.5C172.184 16.5667 171.651 17.6167 171.184 18.65C170.718 19.6833 170.368 20.4667 170.134 21L169.734 21.95Z" fill="#FF869C"/>
</svg>
