<svg width="30" height="30" viewBox="0 0 30 30" fill="none" xmlns="http://www.w3.org/2000/svg">
<circle cx="15" cy="15" r="15" fill="#FF869C"/>
<path d="M12.8352 17.5469V17.2557C12.8352 16.4508 12.9015 15.8092 13.0341 15.331C13.1714 14.8527 13.3703 14.4692 13.6307 14.1804C13.8911 13.8868 14.2083 13.6193 14.5824 13.3778C14.8807 13.1884 15.1458 12.9967 15.3778 12.8026C15.6146 12.6037 15.8016 12.3906 15.9389 12.1634C16.0762 11.9361 16.1449 11.678 16.1449 11.3892C16.1449 11.1098 16.0786 10.8636 15.946 10.6506C15.8134 10.4375 15.6312 10.2741 15.3991 10.1605C15.1719 10.0421 14.9186 9.98295 14.6392 9.98295C14.3598 9.98295 14.0971 10.0469 13.8509 10.1747C13.6094 10.3026 13.4105 10.4848 13.2543 10.7216C13.1027 10.9536 13.0246 11.2353 13.0199 11.5668H9.75284C9.76705 10.5724 9.99669 9.75805 10.4418 9.12358C10.8916 8.48911 11.4858 8.02036 12.2244 7.71733C12.9631 7.40956 13.7775 7.25568 14.6676 7.25568C15.643 7.25568 16.5095 7.4072 17.267 7.71023C18.0294 8.01326 18.6283 8.4607 19.0639 9.05256C19.4995 9.64441 19.7173 10.3688 19.7173 11.2259C19.7173 11.7893 19.6226 12.2865 19.4332 12.7173C19.2438 13.1482 18.9787 13.5294 18.6378 13.8608C18.3016 14.1875 17.9063 14.4858 17.4517 14.7557C17.0966 14.964 16.8007 15.1818 16.5639 15.4091C16.3319 15.6364 16.1567 15.8968 16.0384 16.1903C15.92 16.4792 15.8608 16.8343 15.8608 17.2557V17.5469H12.8352ZM14.4048 22.206C13.8935 22.206 13.4555 22.026 13.0909 21.6662C12.7311 21.3063 12.5535 20.8707 12.5582 20.3594C12.5535 19.8575 12.7311 19.429 13.0909 19.0739C13.4555 18.714 13.8935 18.5341 14.4048 18.5341C14.8925 18.5341 15.321 18.714 15.6903 19.0739C16.0597 19.429 16.2467 19.8575 16.2514 20.3594C16.2467 20.7003 16.1567 21.0104 15.9815 21.2898C15.8111 21.5691 15.5862 21.7917 15.3068 21.9574C15.0322 22.1231 14.7315 22.206 14.4048 22.206Z" fill="white"/>
</svg>
