<svg width="21" height="21" viewBox="0 0 21 21" fill="none" xmlns="http://www.w3.org/2000/svg">
<path d="M5.33531 5.33341C5.33531 2.47994 7.64937 0.166748 10.5039 0.166748C13.3585 0.166748 15.6725 2.47994 15.6725 5.33341C15.6725 8.18689 13.3585 10.5001 10.5039 10.5001C9.13312 10.5001 7.81846 9.95574 6.84916 8.9868C5.87985 8.01786 5.33531 6.7037 5.33531 5.33341ZM20.699 18.9605L18.8383 15.2276C18.1809 13.9112 16.8343 13.0805 15.3624 13.0834H5.64542C4.17353 13.0805 2.82697 13.9112 2.16952 15.2276L0.308821 18.9605C0.107285 19.3603 0.127215 19.8359 0.361493 20.2174C0.595772 20.599 1.01099 20.8321 1.45884 20.8334H19.549C19.9969 20.8321 20.4121 20.599 20.6464 20.2174C20.8806 19.8359 20.9006 19.3603 20.699 18.9605Z" fill="#FF869C"/>
</svg>
