<svg width="25" height="26" viewBox="0 0 25 26" fill="none" xmlns="http://www.w3.org/2000/svg">
<path d="M21.5417 3.16659H20.25V1.22909C20.25 0.872401 19.9608 0.583252 19.6042 0.583252H18.3125C17.9558 0.583252 17.6667 0.872401 17.6667 1.22909V3.16659H7.33333V1.22909C7.33333 0.872401 7.04418 0.583252 6.6875 0.583252H5.39583C5.03915 0.583252 4.75 0.872401 4.75 1.22909V3.16659H3.45833C2.0316 3.16659 0.875 4.32318 0.875 5.74992V22.5416C0.875 23.9683 2.0316 25.1249 3.45833 25.1249H21.5417C22.9684 25.1249 24.125 23.9683 24.125 22.5416V5.74992C24.125 4.32318 22.9684 3.16659 21.5417 3.16659ZM21.5417 22.5416H3.45833V8.33325H21.5417V22.5416ZM11.8542 13.4999H13.1458C13.5025 13.4999 13.7917 13.2108 13.7917 12.8541V11.5624C13.7917 11.2057 13.5025 10.9166 13.1458 10.9166H11.8542C11.4975 10.9166 11.2083 11.2057 11.2083 11.5624V12.8541C11.2083 13.2108 11.4975 13.4999 11.8542 13.4999ZM17.0208 13.4999H18.3125C18.6692 13.4999 18.9583 13.2108 18.9583 12.8541V11.5624C18.9583 11.2057 18.6692 10.9166 18.3125 10.9166H17.0208C16.6641 10.9166 16.375 11.2057 16.375 11.5624V12.8541C16.375 13.2108 16.6641 13.4999 17.0208 13.4999ZM6.6875 13.4999H7.97917C8.33585 13.4999 8.625 13.2108 8.625 12.8541V11.5624C8.625 11.2057 8.33585 10.9166 7.97917 10.9166H6.6875C6.33082 10.9166 6.04167 11.2057 6.04167 11.5624V12.8541C6.04167 13.2108 6.33082 13.4999 6.6875 13.4999ZM11.8542 18.6666H13.1458C13.5025 18.6666 13.7917 18.3774 13.7917 18.0208V16.7291C13.7917 16.3724 13.5025 16.0833 13.1458 16.0833H11.8542C11.4975 16.0833 11.2083 16.3724 11.2083 16.7291V18.0208C11.2083 18.3774 11.4975 18.6666 11.8542 18.6666ZM6.6875 18.6666H7.97917C8.33585 18.6666 8.625 18.3774 8.625 18.0208V16.7291C8.625 16.3724 8.33585 16.0833 7.97917 16.0833H6.6875C6.33082 16.0833 6.04167 16.3724 6.04167 16.7291V18.0208C6.04167 18.3774 6.33082 18.6666 6.6875 18.6666Z" fill="#FF869C"/>
</svg>
