<svg width="29" height="17" viewBox="0 0 29 17" fill="none" xmlns="http://www.w3.org/2000/svg">
<path d="M14.375 0.571533C19.6309 0.571533 23.7252 3.70323 28.75 8.78582C24.4247 13.1304 20.7924 17.0001 14.375 17.0001C7.96401 17.0001 3.24721 12.0972 0 8.87566C3.32422 5.10222 8.0346 0.571533 14.375 0.571533ZM14.375 14.6449C17.5452 14.6449 20.125 12.0138 20.125 8.78582C20.125 5.55144 17.5452 2.92672 14.375 2.92672C11.2048 2.92672 8.625 5.55786 8.625 8.78582C8.625 12.0202 11.2048 14.6449 14.375 14.6449Z" fill="white"/>
<path d="M14.375 6.73214C14.375 6.22517 14.1889 5.76311 13.8873 5.40374C14.0477 5.37807 14.2082 5.36523 14.375 5.36523C16.2232 5.36523 17.7313 6.899 17.7313 8.78571C17.7313 10.6724 16.2232 12.2062 14.375 12.2062C12.5268 12.2062 11.0187 10.6724 11.0187 8.78571C11.0187 8.63811 11.0315 8.49051 11.0444 8.34291C11.3973 8.61886 11.8337 8.78571 12.315 8.78571C13.4573 8.78571 14.375 7.86802 14.375 6.73214Z" fill="white"/>
</svg>
