<svg width="31" height="31" viewBox="0 0 31 31" fill="none" xmlns="http://www.w3.org/2000/svg">
<path d="M14.6396 14.0417L17.9937 10.7021C18.1304 10.5665 18.2389 10.4052 18.3129 10.2275C18.387 10.0498 18.4251 9.8592 18.4251 9.66668C18.4251 9.47416 18.387 9.28355 18.3129 9.10584C18.2389 8.92813 18.1304 8.76684 17.9937 8.63127C17.8582 8.49458 17.6969 8.38609 17.5192 8.31205C17.3414 8.23801 17.1508 8.19989 16.9583 8.19989C16.7658 8.19989 16.5752 8.23801 16.3975 8.31205C16.2198 8.38609 16.0585 8.49458 15.9229 8.63127L10.0896 14.4646C9.95679 14.6033 9.85272 14.7668 9.78331 14.9458C9.63745 15.3009 9.63745 15.6991 9.78331 16.0542C9.85272 16.2332 9.95679 16.3967 10.0896 16.5354L15.9229 22.3688C16.0589 22.5047 16.2203 22.6126 16.3979 22.6862C16.5756 22.7598 16.766 22.7977 16.9583 22.7977C17.1506 22.7977 17.341 22.7598 17.5187 22.6862C17.6963 22.6126 17.8578 22.5047 17.9937 22.3688C18.1297 22.2328 18.2376 22.0714 18.3112 21.8937C18.3847 21.7161 18.4226 21.5256 18.4226 21.3334C18.4226 21.1411 18.3847 20.9506 18.3112 20.773C18.2376 20.5953 18.1297 20.4339 17.9937 20.2979L14.6396 16.9583H28.625C29.0118 16.9583 29.3827 16.8047 29.6562 16.5312C29.9297 16.2577 30.0833 15.8868 30.0833 15.5C30.0833 15.1132 29.9297 14.7423 29.6562 14.4688C29.3827 14.1953 29.0118 14.0417 28.625 14.0417L14.6396 14.0417ZM15.5 30.0834C18.2255 30.0955 20.8998 29.3437 23.2197 27.9131C25.5396 26.4825 27.4122 24.4304 28.625 21.9896C28.799 21.6415 28.8277 21.2385 28.7046 20.8693C28.5815 20.5001 28.3168 20.1949 27.9687 20.0209C27.6206 19.8468 27.2177 19.8182 26.8484 19.9412C26.4792 20.0643 26.174 20.329 26 20.6771C25.078 22.5389 23.6756 24.1208 21.9377 25.2592C20.1998 26.3976 18.1894 27.0513 16.1143 27.1527C14.0392 27.2541 11.9746 26.7995 10.134 25.8359C8.29339 24.8724 6.74346 23.4348 5.6444 21.6717C4.54534 19.9086 3.93703 17.884 3.88231 15.8072C3.8276 13.7303 4.32848 11.6765 5.33319 9.858C6.33789 8.03951 7.80998 6.52229 9.59732 5.46315C11.3847 4.404 13.4224 3.84136 15.5 3.83335C17.6745 3.82393 19.8077 4.42782 21.6546 5.5757C23.5015 6.72358 24.9874 8.36893 25.9416 10.3229C26.1157 10.671 26.4209 10.9357 26.7901 11.0588C27.1593 11.1819 27.5623 11.1532 27.9104 10.9792C28.2585 10.8051 28.5232 10.4999 28.6463 10.1307C28.7693 9.76151 28.7407 9.35853 28.5666 9.01043C27.4104 6.68365 25.6536 4.70801 23.4778 3.28787C21.3021 1.86772 18.7864 1.05465 16.1911 0.932745C13.5957 0.810841 11.0149 1.38453 8.7156 2.59448C6.4163 3.80443 4.48201 5.6067 3.1128 7.81486C1.74358 10.023 0.989166 12.5569 0.927588 15.1544C0.866009 17.7519 1.4995 20.3187 2.76254 22.5892C4.02558 24.8598 5.87229 26.7517 8.11167 28.0692C10.351 29.3868 12.9018 30.0821 15.5 30.0834Z" fill="#FF869C"/>
</svg>
