<svg width="31" height="25" viewBox="0 0 31 25" fill="none" xmlns="http://www.w3.org/2000/svg">
<path d="M15.089 6.4553L5.16708 14.6351V23.4635C5.16708 23.6921 5.25779 23.9113 5.41927 24.073C5.58075 24.2346 5.79976 24.3254 6.02812 24.3254L12.0587 24.3098C12.2863 24.3087 12.5042 24.2174 12.6647 24.0558C12.8253 23.8943 12.9154 23.6758 12.9154 23.4479V18.2922C12.9154 18.0636 13.0061 17.8444 13.1676 17.6828C13.3291 17.5211 13.5481 17.4303 13.7764 17.4303H17.2206C17.449 17.4303 17.668 17.5211 17.8295 17.6828C17.991 17.8444 18.0817 18.0636 18.0817 18.2922V23.4441C18.0813 23.5576 18.1033 23.6699 18.1464 23.7748C18.1896 23.8797 18.2529 23.975 18.3329 24.0553C18.4129 24.1356 18.5079 24.1994 18.6126 24.2429C18.7172 24.2863 18.8294 24.3087 18.9427 24.3087L24.9711 24.3254C25.1995 24.3254 25.4185 24.2346 25.58 24.073C25.7414 23.9113 25.8321 23.6921 25.8321 23.4635V14.6292L15.9124 6.4553C15.7958 6.3612 15.6505 6.30989 15.5007 6.30989C15.3509 6.30989 15.2056 6.3612 15.089 6.4553ZM30.7616 12.015L26.2627 8.30296V0.841727C26.2627 0.670287 26.1946 0.505869 26.0735 0.384643C25.9524 0.263417 25.7882 0.195312 25.6169 0.195312H22.6032C22.432 0.195312 22.2677 0.263417 22.1466 0.384643C22.0255 0.505869 21.9574 0.670287 21.9574 0.841727V4.75307L17.1394 0.785166C16.677 0.404309 16.0968 0.196074 15.498 0.196074C14.8992 0.196074 14.319 0.404309 13.8566 0.785166L0.234365 12.015C0.168973 12.0691 0.114871 12.1356 0.0751508 12.2106C0.0354308 12.2856 0.0108711 12.3678 0.0028749 12.4523C-0.00512131 12.5369 0.00360275 12.6222 0.0285486 12.7033C0.0534944 12.7845 0.0941732 12.8599 0.14826 12.9254L1.52055 14.5953C1.57449 14.6609 1.64084 14.7153 1.71579 14.7552C1.79075 14.7952 1.87284 14.8199 1.95736 14.8281C2.04189 14.8363 2.1272 14.8276 2.2084 14.8028C2.28959 14.7779 2.36509 14.7372 2.43057 14.6831L15.089 4.24671C15.2056 4.15262 15.3509 4.10131 15.5007 4.10131C15.6505 4.10131 15.7958 4.15262 15.9124 4.24671L28.5714 14.6831C28.6367 14.7372 28.7121 14.7779 28.7932 14.8029C28.8743 14.8279 28.9595 14.8366 29.0439 14.8286C29.1284 14.8206 29.2104 14.796 29.2854 14.7563C29.3604 14.7165 29.4268 14.6623 29.4808 14.5969L30.8531 12.927C30.9071 12.8612 30.9477 12.7853 30.9723 12.7038C30.997 12.6223 31.0053 12.5367 30.9968 12.452C30.9883 12.3672 30.9631 12.285 30.9228 12.21C30.8824 12.135 30.8277 12.0687 30.7616 12.015Z" fill="#FF869C"/>
</svg>
